<svg viewBox="0 0 30 30" xmlns="http://www.w3.org/2000/svg" xmlns:xlink="http://www.w3.org/1999/xlink" width="30.000000" height="30.000000" fill="none">
	<defs>
		<clipPath id="clipPath_0">
			<rect width="15.000000" height="12.500001" x="7.500000" y="8.750000" fill="rgb(255,255,255)" />
		</clipPath>
	</defs>
	<rect id="whatsapp-128-svgrepo-com 2" width="30.000000" height="30.000000" x="0.000000" y="0.000000" fill="rgb(255,255,255)" fill-opacity="0" />
	<g id="Page-1">
		<g id="Dribbble-Light-Preview">
			<g id="icons">
				<path id="whatsapp-[#128]" d="M15.003 0L14.9955 0C6.72599 0 0 6.72803 0 15C0 18.28 1.05751 21.323 2.85601 23.7913L0.987007 29.365L6.75151 27.5229C9.12301 29.0924 11.9535 30 15.003 30C23.2725 30 30 23.272 30 15C30 6.72803 23.2725 0 15.003 0Z" fill="rgb(51,51,51)" fill-rule="evenodd" />
			</g>
		</g>
	</g>
	<g id="Frame 149286785" customFrame="url(#clipPath_0)">
		<rect id="Frame 149286785" width="15.000000" height="12.500001" x="7.500000" y="8.750000" />
		<path id="Path" d="M8.5 10L21.5 10C22.0523 10 22.5 10.4477 22.5 11C22.5 11.5523 22.0523 12 21.5 12L8.5 12C7.94772 12 7.5 11.5523 7.5 11C7.5 10.4477 7.94772 10 8.5 10Z" fill="rgb(255,255,255)" fill-rule="nonzero" />
		<path id="Path" d="M8.5 14L21.5 14C22.0523 14 22.5 14.4477 22.5 15C22.5 15.5523 22.0523 16 21.5 16L8.5 16C7.94772 16 7.5 15.5523 7.5 15C7.5 14.4477 7.94772 14 8.5 14Z" fill="rgb(255,255,255)" fill-rule="nonzero" />
		<path id="Path" d="M8.5 18L16.5 18C17.0523 18 17.5 18.4477 17.5 19C17.5 19.5523 17.0523 20 16.5 20L8.5 20C7.94772 20 7.5 19.5523 7.5 19C7.5 18.4477 7.94772 18 8.5 18Z" fill="rgb(255,255,255)" fill-rule="nonzero" />
	</g>
</svg>
