<svg viewBox="0 0 30 30" xmlns="http://www.w3.org/2000/svg" xmlns:xlink="http://www.w3.org/1999/xlink" width="30.000000" height="30.000000" fill="none" customFrame="#000000">
	<path id="Vector" d="M15 0C6.71625 0 0 6.71625 0 15C0 23.2837 6.71625 30 15 30C23.2837 30 30 23.2837 30 15C30 6.71625 23.2837 0 15 0ZM22.3675 10.2762L19.905 21.8762C19.7237 22.6987 19.2337 22.8988 18.55 22.5113L14.8 19.7487L12.9925 21.4913C12.8175 21.7163 12.5462 21.86 12.2425 21.86C12.24 21.86 12.2387 21.86 12.2362 21.86L12.5025 18.0425L19.4525 11.765C19.7525 11.4987 19.385 11.3475 18.9862 11.6138L10.4 17.0212L6.7 15.8663C5.9 15.6125 5.8775 15.0662 6.86875 14.6737L21.3263 9.10125C21.9988 8.85625 22.5837 9.26125 22.3662 10.2775L22.3675 10.2762Z" fill="rgb(51,51,51)" fill-rule="nonzero" />
</svg>
