<svg width="92" height="24" viewBox="0 0 92 24" fill="none" xmlns="http://www.w3.org/2000/svg">
<path fill-rule="evenodd" clip-rule="evenodd" d="M27.8157 21.7335C30.5148 21.1889 32.158 18.4315 32.5677 15.7298C32.6854 15.0696 31.806 14.709 31.2187 15.0097C30.6622 15.294 30.1484 15.6579 29.6931 16.0904C28.3477 17.2172 27.434 18.7897 27.1117 20.533C26.995 21.1333 27.4637 21.7935 27.8157 21.7314V21.7335ZM46.7651 22.214C47.0762 22.2715 47.3976 22.2034 47.6609 22.0241C47.9235 21.8447 48.1082 21.5682 48.1741 21.2531C48.4925 20.0745 48.3878 18.8189 47.88 17.7114C47.7044 17.8912 46.1786 19.692 45.7093 20.4121C45.4162 20.7727 45.9444 21.9732 46.7651 22.214ZM64.0139 21.2531C64.19 21.8534 65.0107 21.7978 65.4217 21.5527C66.5336 20.9781 67.4772 20.1152 68.1569 19.0507C68.8372 17.9864 69.2288 16.7582 69.2942 15.4901C69.2942 15.0097 68.6526 14.709 68.1176 14.9454C66.8683 15.4782 65.8194 16.4034 65.1221 17.5862C64.699 18.086 64.3819 18.6692 64.19 19.2993C63.9987 19.9295 63.9364 20.593 64.0078 21.2488L64.0139 21.2531ZM84.1958 15.3703C85.5249 14.3867 86.727 13.2371 87.7747 11.9484C88.6039 10.861 89.2582 9.64505 89.7097 8.34684C88.642 9.18659 87.676 10.154 86.8353 11.2283C85.83 12.5209 84.9463 13.9069 84.1958 15.3681V15.3703ZM40.2522 12.3101L40.3111 12.2502C40.8984 11.4092 41.1327 10.2686 40.3111 9.85354C40.1934 9.7925 40.0179 10.1531 40.0179 10.3329C39.908 10.6598 39.872 11.0078 39.9126 11.3509C39.9532 11.694 40.0693 12.0234 40.2522 12.3145V12.3101ZM39.0754 14.2308C38.6573 13.5585 38.3975 12.7969 38.316 12.0055C38.2345 11.2141 38.3337 10.4142 38.6058 9.66831C39.192 8.16819 41.4216 7.62782 42.2431 9.30881C43.1225 11.1695 41.8323 12.7949 41.4803 13.5106C41.3627 13.7503 42.5362 13.3908 42.9471 13.3908C43.1355 13.3696 43.3261 13.4021 43.4975 13.4847C43.6688 13.5673 43.8144 13.6968 43.9178 13.8586C44.0212 14.0206 44.0784 14.2085 44.083 14.4015C44.0877 14.5945 44.0396 14.7851 43.9441 14.9519C42.5951 17.2332 40.3068 18.7932 40.0137 21.5549C39.9548 22.2161 41.598 21.8556 43.5922 20.1746C43.651 20.1147 47.1706 15.7319 49.8695 12.3101C50.456 11.5301 52.5677 12.3101 51.8638 13.3309C51.2773 14.2308 50.6872 14.892 50.3398 15.4313C49.8108 16.2124 51.1599 16.7527 51.0431 19.6941C52.0405 18.9141 53.6826 17.8335 53.7413 17.7136C55.4439 14.1109 57.2034 9.90905 58.9042 6.18653C59.3152 5.28555 61.6037 5.7061 61.0753 6.90659C60.0191 9.36874 58.9042 12.0094 57.9074 14.4116C58.5804 14.0608 59.2268 13.6602 59.843 13.2132C61.134 12.7927 61.6612 13.9333 61.8379 14.7733C62.3076 16.695 60.2534 19.3358 59.3152 21.2009C59.0804 21.6813 59.6088 21.4405 59.843 21.2607C60.5288 20.8215 61.1425 20.2743 61.6612 19.6397C63.3045 15.0772 68.7016 11.5355 70.8134 14.1762C70.9901 13.9366 71.1657 13.576 71.2244 13.576C71.6941 13.0956 73.5716 13.2764 73.278 14.1762C73.278 14.2362 71.3418 18.1385 70.2826 20.1801C70.0471 20.6604 70.2826 21.861 70.9248 21.3784C71.8593 20.6639 72.706 19.8377 73.4469 18.9174C74.6241 15.5555 78.4342 8.7717 83.5378 6.01004C84.4185 5.52961 85.9982 6.12992 85.4741 7.51016C84.2091 11.3232 81.7317 14.5979 78.4343 16.8159C78.3762 16.8759 78.3168 16.8759 78.3168 16.9357C77.6753 17.4162 75.736 18.5568 75.618 18.9774C75.4116 19.6357 75.3517 20.3328 75.4424 21.0178C75.736 22.0386 76.7323 21.9187 77.4368 21.3784C80.0769 19.3978 81.0738 16.3954 82.7752 13.6337C84.1098 11.3681 85.8209 9.35551 87.8316 7.68554C88.8291 6.84456 89.8265 5.76389 91.175 5.94247C91.4202 5.98499 91.6405 6.11945 91.7924 6.31945C91.9449 6.51933 92.0176 6.7701 91.9964 7.0221C91.0685 10.6789 88.9356 13.9004 85.954 16.1481C84.778 17.1079 83.6074 18.0089 82.5519 18.7289C82.2583 18.9098 81.6131 22.6911 84.3114 21.3708C85.603 20.7705 86.9515 18.7889 87.7148 17.829C88.1251 17.3487 88.7703 18.0089 88.4768 18.669C87.7033 20.3202 86.5569 21.7621 85.1327 22.8774C84.6491 23.3447 84.0469 23.6653 83.3932 23.8031C82.7407 23.941 82.0628 23.8905 81.4364 23.6574C81.0169 23.4281 80.6556 23.1026 80.3808 22.7068C80.106 22.3109 79.925 21.8554 79.8524 21.3762C78.8955 22.5605 77.6063 23.4191 76.1573 23.8372C75.8026 23.9803 75.4176 24.0303 75.0387 23.9823C74.6598 23.9344 74.2991 23.7903 73.9892 23.563C73.6793 23.3357 73.4312 23.0329 73.2665 22.6821C73.1019 22.3314 73.0262 21.9441 73.0468 21.556C71.6983 22.6966 69.0581 25.5181 67.709 22.5168C66.1831 23.3578 63.543 25.2186 61.7241 22.1562C60.493 22.9973 59.0259 24.4985 57.6187 23.5975C57.1689 23.3543 56.8276 22.9454 56.6642 22.4544C56.5001 21.9634 56.5268 21.4274 56.738 20.9557C57.5006 19.2126 59.0259 16.3932 59.1433 16.2135C59.3194 15.8529 58.8498 15.6688 58.5568 15.9129C57.3245 16.9336 56.327 17.7746 56.2683 17.8945C55.6261 19.3347 54.4495 21.9165 53.863 23.2325C53.5113 24.0736 51.9861 24.0137 51.5751 23.4135C50.9886 22.5724 51.8099 21.7325 52.1622 20.9513C50.4602 22.1497 49.2291 23.4135 47.4103 23.7729C46.7082 23.9432 45.9693 23.8631 45.3179 23.5458C44.6664 23.2287 44.1415 22.6936 43.8308 22.0299C42.1297 22.9308 40.1934 24.6717 38.3747 23.2914C36.7914 22.093 37.613 19.0884 41.2503 15.4869C41.2639 15.4762 41.2748 15.4625 41.2824 15.4468C41.29 15.4311 41.2938 15.4139 41.2938 15.3964C41.2938 15.379 41.29 15.3617 41.2824 15.3461C41.2748 15.3304 41.2639 15.3167 41.2503 15.306L40.663 15.0663C39.314 16.9271 36.4393 21.4296 34.6796 22.6922C32.7432 24.0137 31.452 24.3732 30.5726 22.6922C28.6362 24.1335 25.9959 24.3732 24.94 22.0919C23.3567 23.4135 22.3007 24.3133 19.9536 23.835C19.4405 23.6827 18.9881 23.3687 18.6613 22.938C18.3345 22.5074 18.1502 21.9823 18.135 21.4383C18.0479 19.6894 18.1661 17.9361 18.4869 16.2156C17.0202 18.7365 15.6711 21.5538 13.6172 23.7196C13.2651 24.0802 12.0338 23.8394 12.1515 23.1193C12.62 20.2977 14.1456 16.3355 13.9702 13.6937C11.9161 18.3781 8.80725 25.6413 2.6473 23.5398C-1.69401 22.0331 -0.641333 14.0532 5.40416 16.5098C6.10814 16.8105 5.69729 18.1308 5.0522 17.8912C2.11879 16.6929 1.4737 21.6737 4.46594 21.8533C5.22815 21.8836 5.98436 21.7045 6.65518 21.3348C7.32599 20.965 7.88683 20.4183 8.27873 19.7519C12.2681 13.5684 13.4416 7.56462 18.135 0.421308C18.7768 -0.599429 20.4233 0.421307 19.8947 1.50211C19.0591 3.19798 18.3722 4.96567 17.8418 6.78462C17.1193 9.05262 16.7627 11.4249 16.7859 13.8091C19.8991 8.94597 23.0015 4.20272 27.4626 0.240508C27.6392 0.0607543 28.0499 0.120631 28.343 0.240508C28.4419 0.280939 28.5303 0.344076 28.6014 0.424937C28.6723 0.50586 28.724 0.602354 28.7524 0.706908C28.7808 0.811584 28.7851 0.92143 28.7648 1.02789C28.7447 1.13448 28.7007 1.23485 28.6362 1.32118C23.9429 8.82401 19.484 16.5098 20.5409 21.0734C20.7763 22.0331 21.4214 21.8534 22.1842 21.7335C23.2143 21.2841 24.1197 20.5828 24.8202 19.692C25.3115 18.2087 26.1511 16.8701 27.266 15.7925C28.3809 14.7148 29.7374 13.9308 31.2177 13.5084C31.708 13.3686 32.2256 13.3614 32.7194 13.4877C33.2133 13.614 33.6662 13.8694 34.0334 14.2286C34.1327 14.0281 34.2773 13.8545 34.4554 13.7222C34.6335 13.5898 34.84 13.5025 35.0578 13.4674C35.2755 13.4322 35.4983 13.4503 35.7079 13.5202C35.9174 13.59 36.1077 13.7097 36.2629 13.869C36.3211 13.9798 36.3516 14.1035 36.3516 14.2291C36.3516 14.3548 36.3211 14.4785 36.2629 14.5892C35.1481 16.7506 34.2099 18.6113 33.0952 20.5929C33.0363 20.7727 33.2128 21.0733 33.4472 21.0124C35.0316 20.4676 37.2021 16.9902 39.0797 14.2286L39.0754 14.2308ZM77.3254 15.4923C78.6025 14.6727 79.7501 13.6604 80.7282 12.4899C81.7045 11.2231 82.5131 9.83133 83.1335 8.3501C81.9853 9.24567 80.9419 10.2729 80.0243 11.4113C79.0583 12.7254 78.1571 14.0882 77.3254 15.4945V15.4923Z" fill="black"/>
</svg>
