<svg width="40" height="22" viewBox="0 0 40 22" fill="none" xmlns="http://www.w3.org/2000/svg">
<path d="M5.07479 18.549V14.776H1.51172V17.9C1.51172 19.463 2.91447 22 6.90848 22C10.9024 22 12.3063 20.062 12.3063 17.9V0H8.74414V18.524C8.74579 19.0122 8.55447 19.4814 8.2118 19.8298C7.86909 20.1781 7.40262 20.3776 6.91347 20.385C6.4261 20.3842 5.9589 20.1904 5.61458 19.8462C5.27022 19.502 5.07681 19.0355 5.07681 18.549" fill="black"/>
<path d="M3.29356 12.413C3.70198 12.4136 4.10141 12.2933 4.44126 12.0672C4.78115 11.8411 5.04615 11.5195 5.20278 11.1431C5.35945 10.7667 5.40075 10.3524 5.32134 9.95254C5.24198 9.55269 5.04551 9.18542 4.75682 8.89702C4.46817 8.60867 4.10032 8.41227 3.69976 8.33262C3.29924 8.25306 2.88398 8.29378 2.5067 8.44978C2.12934 8.60578 1.80686 8.86993 1.58001 9.2089C1.35324 9.54787 1.23226 9.94639 1.23242 10.3539C1.23242 10.8997 1.44952 11.4231 1.83602 11.8092C2.22248 12.1953 2.74676 12.4124 3.29356 12.413Z" fill="black"/>
<path d="M20.5109 9.33399H20.3486H18.568V2.04903H20.5109C21.8065 2.04903 22.13 2.32001 22.13 5.71696C22.13 9.11399 21.8065 9.33399 20.5109 9.33399ZM20.726 19.9H20.3486H18.568V11.164H20.726C22.1292 11.164 22.1292 12.158 22.1292 15.557C22.1292 18.956 22.1292 19.903 20.726 19.903M25.6913 7.22603V3.532C25.6711 2.59771 25.2892 1.70748 24.6249 1.04876C23.9606 0.389992 23.0662 0.0140317 22.13 0H15.0059V21.677H22.13C24.8017 21.677 25.6913 19.951 25.6913 18.846V12.346C25.6361 11.7637 25.3649 11.2229 24.9311 10.8294C24.4976 10.4359 23.9324 10.2179 23.3466 10.218C24.7494 10.218 25.6933 8.30401 25.6933 7.22603" fill="black"/>
<path d="M6.58616 0H0L3.29255 7.495L6.58616 0Z" fill="black"/>
<path d="M39.0778 14.775H35.5149V18.549C35.5149 19.0349 35.3215 19.5009 34.9771 19.8444C34.6326 20.188 34.1657 20.381 33.6791 20.381C33.192 20.381 32.7251 20.188 32.3807 19.8444C32.0366 19.5009 31.8433 19.0349 31.8433 18.549V0H28.2832V21.677H39.0778V14.775Z" fill="black"/>
</svg>
