<svg width="136" height="14" viewBox="0 0 136 14" fill="none" xmlns="http://www.w3.org/2000/svg">
<path d="M0 0.0400391H2.57582V4.68387H2.6101C2.85893 4.25554 3.21451 3.89737 3.64287 3.64337C4.07123 3.38929 4.55819 3.24787 5.05736 3.23237C7.33753 3.23237 8.87901 4.16446 8.87901 6.60212V13.116H6.3085V7.33804C6.3085 6.47429 6.19529 5.45279 4.45013 5.45279C2.88666 5.45279 2.57732 6.29771 2.57732 7.08546V13.1145H0V0.0400391Z" fill="black"/>
<path d="M16.7205 13.1136C16.5241 12.8291 16.4272 12.4888 16.4446 12.1447C16.0429 12.5877 15.5501 12.9405 14.9991 13.1795C14.448 13.4184 13.8517 13.538 13.2501 13.53C11.229 13.53 10.2342 12.4175 10.3064 10.5317C10.3665 9.16894 10.9145 7.84302 13.1946 7.46636C14.0748 7.42452 14.9461 7.27302 15.788 7.01536C16.0019 6.92786 16.1806 6.77311 16.2969 6.57502C16.4131 6.37694 16.4602 6.14661 16.4309 5.91944C16.4309 5.30986 15.914 5.03927 14.7398 5.03927C13.2676 5.03927 13.0843 5.91944 13.0471 6.61769H10.6196C10.6591 3.51561 13.3762 3.23219 14.7398 3.23219C15.5387 3.21436 16.3346 3.33503 17.0914 3.58853C17.6494 3.78694 18.1262 4.16111 18.4481 4.65353C18.7702 5.14594 18.9196 5.72936 18.8737 6.31411V11.6254C18.8797 11.8459 18.9337 12.0625 19.0319 12.2606C19.13 12.4586 19.2703 12.6334 19.443 12.7731V13.1151L16.7205 13.1136ZM16.4286 8.53894C15.6684 8.85011 14.8594 9.02811 14.0375 9.06519C13.8537 9.08203 13.6757 9.13811 13.516 9.22969C13.3563 9.32119 13.2185 9.44586 13.1123 9.59519C13.0061 9.74444 12.9338 9.91486 12.9007 10.0944C12.8676 10.274 12.8742 10.4586 12.9202 10.6354C13.0647 11.2112 13.5283 11.6239 14.6273 11.4456C16.1557 11.2112 16.4317 10.1679 16.4317 9.09594L16.4286 8.53894Z" fill="black"/>
<path d="M21.2109 3.39073H23.786V5.27365H23.8224C23.8966 4.94898 24.0417 4.6444 24.2476 4.38115C24.4534 4.11798 24.7151 3.90257 25.0142 3.75007C25.2672 3.54173 25.5615 3.38798 25.8781 3.29865C26.1947 3.20932 26.5267 3.1864 26.8528 3.2314V5.79298C25.7507 5.66748 24.096 5.52473 23.786 7.64065V13.1142H21.2109V3.39073Z" fill="black"/>
<path d="M28.6406 13.1135V3.3907H31.2142V4.84437H31.2477C32.0578 3.69362 32.7943 3.03212 34.3023 3.23204C35.5677 3.39145 35.9212 3.82287 36.6532 4.64595C37.2779 3.78754 38.0517 2.99829 40.1441 3.23204C42.1339 3.51629 42.6812 4.81062 42.6812 6.36804V13.1143H40.1092V6.42445C40.0711 5.70579 39.4327 5.43745 38.8231 5.40287C38.5807 5.38487 38.3371 5.41712 38.1079 5.4977C37.8789 5.5782 37.6694 5.70529 37.4928 5.87079C37.3165 6.03629 37.1769 6.23637 37.0833 6.45837C36.9898 6.68029 36.9442 6.9192 36.9495 7.15954V13.1157H34.3737V6.42595C34.3162 6.1087 34.1372 5.82562 33.8741 5.63537C33.611 5.44512 33.2839 5.36237 32.9608 5.40445C32.725 5.38979 32.4888 5.42545 32.2681 5.50895C32.0474 5.59245 31.8473 5.72187 31.6816 5.88837C31.5158 6.05504 31.3883 6.25479 31.3073 6.47437C31.2264 6.69395 31.1941 6.92804 31.2127 7.16104V13.1172L28.6406 13.1135Z" fill="black"/>
<path d="M50.6431 13.1136C50.4473 12.8288 50.3502 12.4888 50.3664 12.1447C49.9642 12.5877 49.4707 12.9405 48.9192 13.1795C48.3678 13.4184 47.7709 13.538 47.1689 13.53C45.1494 13.53 44.1567 12.4176 44.2282 10.5317C44.2852 9.16895 44.8363 7.84304 47.1164 7.46646C47.9969 7.42463 48.8685 7.27312 49.7105 7.01537C49.9252 6.92887 50.1049 6.77438 50.2212 6.57604C50.3376 6.37771 50.3841 6.14679 50.3535 5.91946C50.3535 5.30987 49.8367 5.03929 48.6631 5.03929C47.1901 5.03929 47.0077 5.91954 46.9698 6.61779H44.5391C44.5771 3.51562 47.3004 3.23221 48.6601 3.23221C49.4588 3.21429 50.2544 3.33488 51.011 3.58854C51.5692 3.78671 52.0461 4.16079 52.3684 4.65329C52.6905 5.14579 52.8401 5.72929 52.7941 6.31412V11.6254C52.7995 11.8459 52.8529 12.0626 52.9508 12.2607C53.049 12.4588 53.1891 12.6336 53.3619 12.7732V13.1151L50.6431 13.1136ZM50.3505 8.53896C49.591 8.84987 48.7828 9.02787 47.9616 9.06521C47.7769 9.08112 47.5979 9.13679 47.4371 9.22813C47.2763 9.31954 47.1377 9.44454 47.0308 9.59438C46.9239 9.74429 46.8513 9.91538 46.8182 10.0959C46.7851 10.2763 46.7922 10.4617 46.8391 10.6392C46.9865 11.215 47.4471 11.6276 48.5492 11.4495C50.0746 11.215 50.3505 10.1716 50.3505 9.09979V8.53896Z" fill="black"/>
<path d="M55.1484 3.39109H57.7249V4.86134H57.7577C57.969 4.38926 58.311 3.98584 58.7442 3.69767C59.1773 3.40942 59.6841 3.24817 60.2058 3.23242C62.486 3.23242 64.0281 4.16384 64.0281 6.60226V13.1153H61.4561V7.33809C61.4561 6.47517 61.3413 5.45359 59.597 5.45359C58.0336 5.45359 57.7249 6.29775 57.7249 7.08625V13.1147H55.1484V3.39109Z" fill="black"/>
<path d="M79.1163 0.0400391V7.17412H79.1544L82.3665 3.39254H85.3122L81.9482 7.10496L85.5288 13.1145H82.5184L80.1836 8.95254L79.1163 10.08V13.1145H76.5449V0.0400391H79.1163Z" fill="black"/>
<path d="M66.0762 13.1308L73.9691 0H74.4613L66.5444 13.1308H66.0762Z" fill="black"/>
<path d="M79.1163 0.0400391V7.17412H79.1544L82.3665 3.39254H85.3122L81.9482 7.10496L85.5288 13.1145H82.5184L80.1836 8.95254L79.1163 10.08V13.1145H76.5449V0.0400391H79.1163Z" fill="black"/>
<path d="M92.6863 13.1138C92.4896 12.8295 92.3933 12.4888 92.4132 12.1448C92.0098 12.5877 91.516 12.9402 90.9649 13.1792C90.4121 13.4181 89.8153 13.5378 89.2136 13.5302C87.1875 13.5302 86.1965 12.4177 86.2737 10.5317C86.3277 9.169 86.8813 7.84308 89.1613 7.4665C90.0419 7.424 90.9126 7.2725 91.755 7.0155C91.9692 6.9275 92.1476 6.77267 92.2638 6.57467C92.38 6.37667 92.4265 6.14658 92.3975 5.91958C92.3975 5.30991 91.882 5.03933 90.7059 5.03933C89.2318 5.03933 89.0517 5.91958 89.0127 6.61783H86.5858C86.6223 3.5135 89.3447 3.23017 90.7059 3.23017C91.5052 3.21275 92.3003 3.33333 93.0565 3.58642C93.6151 3.78533 94.0907 4.16 94.4119 4.65292C94.7339 5.14575 94.8825 5.7295 94.836 6.31425V11.6254C94.841 11.8462 94.8949 12.0631 94.9937 12.2613C95.0925 12.4595 95.2336 12.6341 95.4062 12.7733V13.1153L92.6863 13.1138ZM92.395 8.53908C91.633 8.85042 90.8238 9.0285 90.0012 9.06533C89.8162 9.08183 89.6377 9.13783 89.4783 9.22958C89.3182 9.32125 89.1795 9.44633 89.0733 9.59608C88.9671 9.74583 88.8949 9.91683 88.8625 10.0969C88.8285 10.2771 88.8359 10.4622 88.8832 10.6393C89.0277 11.215 89.4908 11.6277 90.5905 11.4496C92.1186 11.215 92.395 10.1717 92.395 9.09983V8.53908Z" fill="black"/>
<path d="M97.1719 3.39082H99.7432V5.27365H99.7855C99.8594 4.94882 100.005 4.64398 100.211 4.38073C100.416 4.11748 100.679 3.90223 100.978 3.75007C101.231 3.54173 101.524 3.38798 101.841 3.29865C102.157 3.20932 102.488 3.1864 102.813 3.2314V5.79307C101.711 5.66748 100.056 5.52473 99.7432 7.64073V13.1143H97.1719V3.39082Z" fill="black"/>
<path d="M113.198 13.1673H110.628V12.1435H110.589C110.308 12.5543 109.934 12.8936 109.496 13.1339C109.058 13.3741 108.569 13.5084 108.068 13.5259C106.271 13.5943 105.241 12.8952 104.467 11.2798C104.046 10.4326 103.791 9.5146 103.714 8.57393C103.672 7.4916 103.893 6.41493 104.357 5.43418C104.645 4.77485 105.122 4.21418 105.73 3.82252C106.339 3.43077 107.051 3.2256 107.776 3.23252C109.449 3.15735 110.224 3.89401 110.589 4.71785H110.626V0.0410156H113.196L113.198 13.1673ZM106.749 6.49552C106.466 7.09118 106.316 7.73951 106.307 8.39718C106.316 9.05443 106.466 9.70218 106.749 10.2974C106.9 10.6234 107.141 10.8995 107.446 11.0932C107.75 11.2869 108.106 11.3898 108.468 11.3898C108.83 11.3898 109.185 11.2869 109.489 11.0932C109.795 10.8995 110.036 10.6234 110.186 10.2974C110.469 9.70202 110.619 9.05435 110.628 8.39718C110.619 7.7396 110.469 7.09135 110.186 6.49552C110.037 6.16885 109.796 5.89185 109.49 5.6976C109.185 5.50326 108.831 5.39993 108.468 5.39993C108.105 5.39993 107.75 5.50326 107.445 5.6976C107.14 5.89185 106.899 6.16885 106.749 6.49552Z" fill="black"/>
<path d="M116.361 12.3409C115.856 11.8134 115.466 11.1894 115.214 10.5073C114.961 9.82511 114.853 9.09936 114.896 8.37428C114.854 7.65019 114.963 6.92528 115.215 6.24419C115.467 5.56303 115.857 4.93995 116.361 4.41303C117.34 3.6477 118.553 3.23145 119.8 3.23145C121.048 3.23145 122.261 3.6477 123.241 4.41303C123.744 4.93978 124.135 5.56278 124.388 6.24386C124.641 6.92503 124.749 7.64994 124.709 8.37428C124.75 9.09944 124.641 9.82545 124.389 10.5076C124.136 11.1897 123.745 11.8135 123.241 12.3409C122.262 13.1079 121.049 13.5254 119.8 13.5254C118.552 13.5254 117.339 13.1079 116.361 12.3409ZM117.963 6.47786C117.655 7.06503 117.489 7.71561 117.482 8.37728C117.489 9.04003 117.654 9.69186 117.963 10.2798C118.139 10.6102 118.403 10.8868 118.727 11.0798C119.051 11.2726 119.422 11.3746 119.799 11.3746C120.177 11.3746 120.548 11.2726 120.872 11.0798C121.195 10.8868 121.459 10.6102 121.635 10.2798C121.946 9.69186 122.11 9.04003 122.117 8.37728C122.109 7.71561 121.944 7.06503 121.635 6.47786C121.458 6.14803 121.195 5.87211 120.871 5.67961C120.547 5.4872 120.176 5.38561 119.799 5.38561C119.423 5.38561 119.051 5.4872 118.728 5.67961C118.404 5.87211 118.14 6.14803 117.963 6.47786Z" fill="black"/>
<path d="M126.41 3.39109H128.985V4.86134H129.022C129.231 4.38859 129.572 3.9845 130.006 3.69617C130.438 3.40784 130.945 3.24701 131.467 3.23242C133.747 3.23242 135.289 4.16384 135.289 6.60226V13.1153H132.718V7.33809C132.718 6.47517 132.604 5.45359 130.859 5.45359C129.294 5.45359 128.985 6.29775 128.985 7.08625V13.1147H126.41V3.39109Z" fill="black"/>
<path d="M66.0762 13.1308L73.9691 0H74.4613L66.5444 13.1308H66.0762Z" fill="black"/>
</svg>
