<svg width="19" height="23" viewBox="0 0 19 23" fill="none" xmlns="http://www.w3.org/2000/svg">
<path d="M15.8669 12.2207C15.8739 13.2145 16.1747 14.1846 16.7311 15.0114C17.2878 15.8383 18.0763 16.4859 19 16.8745C18.6282 18.0364 18.0855 19.1376 17.3901 20.143C16.4147 21.5451 15.4055 22.9389 13.8136 22.9724C12.2547 22.9995 11.7499 22.0555 9.96486 22.0575C8.17991 22.0595 7.62251 22.945 6.14257 22.9985C4.60455 23.056 3.43703 21.4866 2.4553 20.0897C0.44966 17.2363 -1.08098 12.0262 0.977449 8.49738C1.4628 7.64579 2.16254 6.93319 3.00849 6.42893C3.85443 5.9247 4.81779 5.646 5.80475 5.61998C7.31535 5.58859 8.73408 6.61536 9.65675 6.61536C10.5795 6.61536 12.3095 5.38262 14.1262 5.56037C14.9663 5.59068 15.788 5.81225 16.5278 6.20791C17.2678 6.60355 17.9056 7.16263 18.392 7.84178C17.6307 8.30122 16.9999 8.94448 16.5585 9.71125C16.1167 10.478 15.8789 11.3432 15.8669 12.2259V12.2207ZM12.9279 3.67204C13.8082 2.65581 14.2456 1.33521 14.1439 0C12.8164 0.126562 11.5868 0.749893 10.7071 1.74296C10.2692 2.22202 9.93415 2.78406 9.72198 3.39511C9.50981 4.00616 9.42517 4.65352 9.47302 5.29792C10.1365 5.30691 10.7936 5.16459 11.393 4.88193C11.9922 4.59928 12.5178 4.18388 12.9292 3.66788" fill="black"/>
</svg>
