<svg viewBox="0 0 89 16" xmlns="http://www.w3.org/2000/svg" xmlns:xlink="http://www.w3.org/1999/xlink" width="89.000000" height="16.000000" fill="none" customFrame="#000000">
	<path id="Vector" d="M31.7068 16C28.48 16 25.4896 15.0124 23.4925 13.1818C22.7796 12.5279 22.2116 11.726 21.8263 10.83C21.441 9.93382 21.2473 8.9641 21.2582 7.98547C21.2563 7.01094 21.4541 6.04691 21.8389 5.1552C22.2237 4.26342 22.7869 3.46387 23.4925 2.808C25.3472 1.08141 28.6224 0 31.7068 0C35.1194 0 37.8514 0.877823 39.939 2.81235C40.6426 3.46745 41.2029 4.26701 41.5833 5.15859C41.9637 6.05011 42.1554 7.0137 42.1462 7.98618C42.141 8.95962 41.9427 9.92179 41.5634 10.8148C41.184 11.7078 40.6314 12.513 39.939 13.1818C37.9945 15.0247 34.9393 16 31.7068 16L31.7068 13.8909C33.3418 13.9313 34.9261 13.3096 36.1141 12.1614C36.6506 11.6171 37.0709 10.9651 37.3485 10.2466C37.6262 9.52819 37.7552 8.75878 37.7275 7.98688C37.7441 7.21517 37.6099 6.44787 37.3329 5.72973C37.0559 5.01165 36.6416 4.35706 36.1141 3.80435C34.9005 2.69722 33.3304 2.08525 31.7033 2.08525C30.0762 2.08525 28.506 2.69722 27.2924 3.80435C26.767 4.35834 26.3541 5.01318 26.078 5.73113C25.8018 6.44896 25.6676 7.21574 25.6833 7.98688C25.6693 8.75667 25.8042 9.52166 26.0803 10.2381C26.3564 10.9545 26.7684 11.6081 27.2924 12.1614C28.4866 13.3041 30.0708 13.9247 31.7068 13.8909L31.7068 16ZM8.14251 0.00800049C6.30561 -0.00326351 4.48575 0.367935 2.79393 1.09888C1.25747 1.79635 2.7601e-05 2.928 2.7601e-05 4.80506C-0.00365954 5.7904 0.362194 6.73978 1.02251 7.45818C1.86019 8.28378 2.92501 8.8281 4.07413 9.01818C4.91569 9.20576 6.71565 9.49453 8.50773 9.68576C10.2877 9.87705 12.0371 10.0596 12.7505 10.2436C13.3201 10.3891 14.2685 10.592 14.2685 11.6821C14.2511 12.0254 14.128 12.3542 13.9166 12.6216C13.7052 12.889 13.4165 13.0813 13.0916 13.1709C11.9669 13.6272 10.7625 13.8429 9.55297 13.8043C8.12096 13.7615 6.7023 13.5098 5.34003 13.0567C4.38398 12.7588 3.53504 12.1798 2.89933 11.3919C2.58115 10.9283 2.40493 10.3785 2.39311 9.81235L0.434348 9.81235L0.434348 15.4124L2.60951 15.4124L2.60951 14.6545C2.60957 14.5984 2.62426 14.5433 2.65197 14.4948C2.67969 14.4463 2.71955 14.4063 2.76742 14.3787C2.81529 14.3511 2.86945 14.337 2.92438 14.3378C2.97937 14.3386 3.03308 14.3543 3.08019 14.3832C4.1061 14.8381 5.17296 15.1898 6.26562 15.4335C7.34526 15.7103 8.45407 15.8509 9.56721 15.8524C11.0664 15.8808 12.5605 15.6658 13.9937 15.2152C14.9429 14.948 15.8336 14.4986 16.6181 13.8909C17.0601 13.5446 17.4173 13.0983 17.6617 12.5871C17.9061 12.0758 18.031 11.5137 18.0265 10.9448C18.0336 9.86336 17.6245 8.82253 16.8873 8.04653C16.476 7.64013 15.9991 7.30944 15.4775 7.06912C14.9197 6.81114 14.3404 6.60448 13.7466 6.45165C12.6259 6.17018 10.0905 5.82394 8.87866 5.69382C7.41538 5.59021 5.96023 5.38873 4.52269 5.09088C4.3 5.03821 4.10026 4.91264 3.95385 4.73331C3.80745 4.55399 3.72239 4.33063 3.71171 4.09747C3.72245 3.85357 3.79683 3.61715 3.92715 3.41254C4.05747 3.20794 4.23897 3.04269 4.45289 2.93382C5.7034 2.33696 7.07699 2.05888 8.45579 2.12365C10.0472 2.10368 11.6256 2.4183 13.093 3.048C13.4873 3.22355 13.8584 3.44941 14.1973 3.72C14.7489 4.20128 15.1308 4.85402 15.2846 5.57818L17.041 5.57818L17.041 0.706177L15.0795 0.706177L15.0795 1.27271C15.0795 1.45523 14.8944 1.69306 14.5448 1.4967C12.5457 0.520128 10.3584 0.0115205 8.14251 0.00800049ZM51.1292 0.893057L60.6986 9.71123L60.5995 3.77382C60.5906 2.99565 60.4501 2.67053 59.6249 2.67053L57.8265 2.67053L57.8265 0.894529L66.0081 0.894529L66.0081 2.67053L64.2529 2.67053C63.4112 2.67053 63.3585 2.94547 63.3489 3.77382L63.4971 15.1192L60.6955 15.1192L49.6735 5.07417L49.6735 12.2014C49.6824 12.9767 49.7186 13.3411 50.4999 13.3411L52.4649 13.3411L52.4649 15.1164L44.4331 15.1164L44.4331 13.3418L46.3112 13.3418C47.0124 13.3418 46.985 12.6582 46.985 12.1614L46.985 3.84141C46.985 3.30477 46.9138 2.672 45.8096 2.672L44.2864 2.672L44.2864 0.893057L51.1292 0.893057ZM75.3569 13.3389C75.5191 13.3392 75.6805 13.329 75.8413 13.3083C75.9246 13.2827 76.0015 13.2388 76.0664 13.1797C76.1312 13.1207 76.1827 13.048 76.2177 12.9665C76.2425 12.8401 76.2552 12.7115 76.2552 12.5825L76.2552 9.776C76.2552 9.70835 76.2501 9.6793 76.1376 9.5287C76.0143 9.36435 71.1263 3.71053 70.9025 3.45818C70.7207 3.2249 70.4918 3.03398 70.2318 2.89818C69.9718 2.76237 69.687 2.68474 69.3952 2.67053L67.696 2.67053L67.696 0.893823L77.2914 0.893823L77.2914 2.66835L76.1344 2.66835C75.8674 2.66835 75.6894 2.928 75.9208 3.216C75.9208 3.216 79.149 7.15853 79.1795 7.2C79.21 7.24141 79.2348 7.25165 79.2761 7.21382C79.3174 7.176 82.585 3.25165 82.6111 3.22112C82.6505 3.16909 82.674 3.10669 82.6791 3.04135C82.6848 2.97607 82.6715 2.91046 82.6416 2.85254C82.6117 2.79456 82.5659 2.74656 82.51 2.7143C82.454 2.68205 82.3905 2.66688 82.3263 2.67053L81.14 2.67053L81.14 0.893823L89 0.893823L89 2.67053L87.2435 2.67053C86.9759 2.64634 86.707 2.69632 86.4648 2.81504C86.2226 2.93382 86.016 3.11699 85.8672 3.34547C85.6479 3.59853 80.7065 9.35706 80.573 9.51347C80.5202 9.58976 80.4973 9.68333 80.5081 9.776L80.5081 12.5818C80.5081 12.7105 80.5208 12.8389 80.5456 12.9651C80.5806 13.0466 80.6321 13.1193 80.6976 13.1782C80.7624 13.2371 80.84 13.2808 80.9232 13.3062C81.0822 13.3275 81.2417 13.3379 81.4019 13.3375L83.1991 13.3375L83.1991 15.1142L73.6545 15.1142L73.6545 13.3375L75.3576 13.3375L75.3569 13.3389Z" fill="rgb(0,0,0)" fill-rule="nonzero" />
</svg>
