<svg viewBox="0 0 99 14" xmlns="http://www.w3.org/2000/svg" xmlns:xlink="http://www.w3.org/1999/xlink" width="99.000000" height="14.000000" fill="none" customFrame="#000000">
	<path id="Vector" d="M25.8429 0.886876C25.65 0.570134 25.2643 0.316742 24.8786 0.316742L24.1071 0.316742C23.7214 0.316742 23.2714 0.570134 23.1429 0.886876L17.1643 13.1765C16.9714 13.4932 17.1643 13.7466 17.55 13.7466L18.9643 13.7466C19.4786 13.7466 19.7357 13.4932 19.9286 13.1765C20.0571 12.8597 20.3786 12.2262 20.4429 12.0995C20.5071 11.9095 20.7643 11.7828 21.15 11.7828L27.5786 11.7828C27.9643 11.7828 28.2214 11.8462 28.2857 12.0995C28.35 12.2262 28.6714 12.7964 28.8643 13.1131C28.9929 13.4299 29.3143 13.6833 29.8286 13.6833L31.8214 13.6833C32.2071 13.6833 32.3357 13.4299 32.2071 13.1765C32.0786 12.9864 25.8429 0.886876 25.8429 0.886876ZM22.05 9.9457C21.6643 9.9457 21.5357 9.69231 21.6643 9.31222L24.0429 4.37104C24.1714 4.0543 24.4286 4.0543 24.6214 4.37104L26.9357 9.31222C27.0643 9.62896 26.9357 9.9457 26.55 9.9457L22.05 9.9457ZM72 1.01357L72 13.2398C72 13.5566 72.3214 13.81 72.6429 13.81L74.25 13.81C74.6357 13.81 74.8929 13.5566 74.8929 13.2398L74.8929 0.950226C74.8929 0.570136 74.6357 0.316742 74.25 0.316742L72.5786 0.316742C72.3214 0.316742 72 0.506786 72 1.01357ZM44.6786 8.61538C44.4857 8.29864 44.6143 7.9819 44.9357 7.8552C44.9357 7.8552 46.35 7.41176 46.9929 6.84163C47.7 6.27149 48.0214 5.38461 48.0214 4.24434C48.0214 3.48416 47.8929 2.91403 47.6357 2.40724C47.3786 1.90045 46.9929 1.52036 46.5429 1.20362C46.0286 0.886876 45.45 0.633484 44.8071 0.506787C44.1 0.38009 43.2 0.316742 43.2 0.316742C42.8143 0.316742 42.2357 0.253392 41.85 0.253392L35.0357 0.253392C34.65 0.253392 34.3929 0.570134 34.3929 0.886876L34.3929 13.0498C34.3929 13.4299 34.7143 13.6199 35.0357 13.6199L36.6429 13.6199C37.0286 13.6199 37.2857 13.3665 37.2857 13.0498L37.2857 8.29864L40.3071 8.29864C40.6929 8.29864 41.1429 8.55204 41.4 8.86878L44.55 13.2398C44.8714 13.6199 45.1286 13.7466 45.5143 13.7466L47.6357 13.7466C48.0214 13.7466 48.0857 13.4299 47.9571 13.2398C47.8286 13.0498 44.6786 8.61538 44.6786 8.61538ZM43.3929 6.14479C42.9429 6.20814 42.4929 6.27149 42.4929 6.27149C42.1071 6.27149 41.5286 6.27149 41.1429 6.27149L37.9929 6.27149C37.6071 6.27149 37.35 5.95475 37.35 5.63801L37.35 3.16742C37.35 2.78733 37.6714 2.53394 37.9929 2.53394L41.1429 2.53394C41.5286 2.53394 42.1071 2.53394 42.4929 2.53394C42.4929 2.53394 42.9429 2.53393 43.3929 2.66063C43.8429 2.72398 44.1643 2.91403 44.3571 3.04072C44.6143 3.23077 44.8071 3.42081 44.8714 3.67421C44.9357 3.9276 45 4.181 45 4.43439C45 4.68778 44.9357 4.94117 44.8714 5.19457C44.7429 5.44796 44.6143 5.63801 44.3571 5.82805C44.1 5.95475 43.7786 6.08145 43.3929 6.14479ZM92.0571 0.316742C91.6714 0.316742 91.4143 0.570134 91.4143 0.886876L91.4143 8.67873C91.4143 9.05882 91.2214 9.12217 90.9643 8.86878L83.0571 0.760179C82.8 0.506785 82.4143 0.253392 81.9 0.253392L80.3571 0.253392C79.9071 0.253392 79.7143 0.506785 79.7143 0.760179L79.7143 13.2398C79.7143 13.4932 79.9714 13.7466 80.3571 13.7466L81.8357 13.7466C82.2214 13.7466 82.4786 13.5566 82.4786 13.2398L82.4786 5.00452C82.4786 4.62443 82.6714 4.56109 82.9286 4.81448L91.2214 13.3032C91.4786 13.5566 91.8 13.7466 92.3786 13.7466L93.4714 13.7466C93.8571 13.7466 94.1143 13.4299 94.1143 13.1131L94.1143 0.950226C94.1143 0.570136 93.7928 0.316742 93.4714 0.316742L92.0571 0.316742ZM59.7214 7.91855C59.5286 8.23529 59.2714 8.23529 59.0786 7.91855L55.2214 0.886876C55.0286 0.570134 54.7071 0.316742 54.2571 0.316742L52.1357 0.316742C51.75 0.316742 51.4929 0.633484 51.4929 0.950226L51.4929 13.1131C51.4929 13.4932 51.75 13.7466 52.1357 13.7466L53.4214 13.7466C53.8071 13.7466 54.0643 13.4932 54.0643 13.1765C54.0643 12.9864 54.0643 4.30769 54.0643 4.30769L58.8857 13.1765C59.0786 13.4932 59.4643 13.4932 59.6571 13.1765L64.5429 4.37104C64.5429 4.37104 64.5429 12.9231 64.5429 13.1765C64.5429 13.5566 64.8 13.7466 65.1857 13.7466L66.6643 13.7466C67.05 13.7466 67.3071 13.5566 67.3071 13.1131L67.3071 0.950226C67.3071 0.570136 66.9857 0.316742 66.6643 0.316742L64.6714 0.316742C64.1571 0.316742 63.8357 0.570134 63.6429 0.886876L59.7214 7.91855ZM0 7.03167C0 13.6199 6.81429 13.9367 8.16429 13.9367C12.6643 13.9367 14.5929 12.733 14.6571 12.6697C14.9143 12.543 15.3 12.1629 15.3 11.5928L15.3 7.03167C15.3 6.58823 14.9786 6.27149 14.5286 6.27149L8.87143 6.27149C8.42143 6.27149 8.16429 6.58823 8.16429 7.03167L8.16429 7.47511C8.16429 7.91855 8.42143 8.23529 8.87143 8.23529L12.15 8.23529C12.4714 8.23529 12.7286 8.48869 12.7286 8.80543L12.7286 10.8959C12.0857 11.1493 9.12857 12.0362 6.75 11.4661C3.27857 10.6425 3.02143 7.8552 3.02143 7.03167C3.02143 6.33484 3.21428 2.78733 7.45714 2.40724C10.8643 2.0905 13.1143 3.48416 13.1786 3.48416C13.5643 3.67421 14.0143 3.54751 14.2071 3.10407L14.6571 2.28054C14.85 1.9638 14.7857 1.58371 14.3357 1.26697C14.3357 1.26697 11.8929 0 8.16429 0C0.257143 0.0633484 0 6.27149 0 7.03167ZM97.4571 10.9593C98.2929 10.9593 99 11.6561 99 12.4796C99 13.3032 98.2929 14 97.4571 14C96.6214 14 95.9143 13.3032 95.9143 12.4796C95.85 11.6561 96.5571 10.9593 97.4571 10.9593ZM97.4571 13.81C98.1643 13.81 98.7429 13.2398 98.7429 12.4796C98.7429 11.7195 98.2286 11.1493 97.4571 11.1493C96.75 11.1493 96.1714 11.7195 96.1714 12.4796C96.1714 13.2398 96.75 13.81 97.4571 13.81ZM96.8143 11.5928L97.5214 11.5928C97.9714 11.5928 98.1643 11.7828 98.1643 12.0995C98.1643 12.4163 97.9714 12.6063 97.7143 12.6063L98.2286 13.4299L97.9071 13.4299L97.3929 12.6063L97.1357 12.6063L97.1357 13.3665L96.8143 13.3665L96.8143 11.5928ZM97.1357 12.3529L97.4571 12.3529C97.7143 12.3529 97.8429 12.2896 97.8429 12.0995C97.8429 11.9095 97.65 11.8462 97.4571 11.8462L97.1357 11.8462L97.1357 12.3529Z" fill="rgb(0,0,0)" fill-rule="nonzero" />
</svg>
