<svg width="61" height="19" viewBox="0 0 61 19" fill="none" xmlns="http://www.w3.org/2000/svg">
<path fill-rule="evenodd" clip-rule="evenodd" d="M22.0318 7.15906C23.5314 7.15906 24.2435 6.90001 24.2435 6.3819V3.79121C24.2435 3.2731 23.5314 3.014 22.0318 3.014H18.8087C17.3092 3.014 16.5971 3.2731 16.5971 3.79121V6.3819C16.5971 6.90001 17.3092 7.15906 18.8087 7.15906H22.0318ZM22.0318 8.38446H18.8087C16.1263 8.38446 14.7852 7.69358 14.7852 6.28601V3.89314C14.7852 2.4838 16.1263 1.79297 18.8087 1.79297H22.0318C24.7142 1.79297 26.0554 2.4838 26.0554 3.89314V6.28601C26.0554 7.69531 24.7142 8.38446 22.0318 8.38446Z" fill="black"/>
<path fill-rule="evenodd" clip-rule="evenodd" d="M56.5467 7.1602H53.3247C51.8252 7.1602 51.1124 6.90115 51.1124 6.38299V3.79235C51.1124 3.27424 51.8252 3.01514 53.3247 3.01514H56.5467C58.0472 3.01514 58.7585 3.27424 58.7585 3.79235V6.38299C58.7585 6.9046 58.0472 7.1602 56.5467 7.1602ZM56.5467 8.3856C59.229 8.3856 60.5711 7.69472 60.5711 6.28715V3.89423C60.5711 2.48494 59.23 1.79492 56.5467 1.79492H53.3247C50.6419 1.79492 49.3008 2.4858 49.3008 3.89423V6.28715C49.3008 7.69645 50.6419 8.3856 53.3247 8.3856H56.5467Z" fill="black"/>
<path fill-rule="evenodd" clip-rule="evenodd" d="M12.9281 6.25537V4.60079C12.9281 4.24245 12.7057 4.08263 12.2575 4.08263H8.32916C8.15508 4.08888 7.99032 4.16226 7.86939 4.28732C7.74846 4.41237 7.68095 4.5794 7.68095 4.75319C7.68095 4.92702 7.74846 5.09395 7.86939 5.21906C7.99032 5.34416 8.15508 5.41749 8.32916 5.42374H11.0167V6.30629C11.0167 6.57312 10.6706 6.83131 10.0822 6.98767C9.66923 7.09158 9.24373 7.13752 8.81806 7.12405H4.49943C2.77637 7.12405 1.91456 6.8402 1.914 6.2726V2.07489C1.914 1.50754 2.94368 1.24503 4.99959 1.24503H6.21094C6.67591 1.24503 6.90834 1.0372 6.90834 0.621534C6.90834 0.205869 6.67647 -0.000488684 6.21267 0.00235695H4.48813C3.52056 -0.0200016 2.5558 0.116843 1.63274 0.407351C0.663645 0.739833 0 1.32359 0 2.07489V6.28469C0 7.06821 0.534469 7.63759 1.60336 7.99278C2.53289 8.27572 3.50193 8.40779 4.47347 8.38401H8.81542C9.73242 8.40687 10.6457 8.25869 11.5082 7.94705C12.4548 7.57686 12.9281 7.0118 12.9281 6.25187" fill="black"/>
<path fill-rule="evenodd" clip-rule="evenodd" d="M39.1257 3.26895C39.1257 3.94514 38.2769 4.14113 36.616 4.14113H29.8587V1.24393H36.6145C38.2769 1.24393 39.1241 1.44002 39.1241 2.11611L39.1257 3.26895ZM39.3706 0.354517C38.4734 0.106287 37.5457 -0.0123665 36.6145 0.00216651H28.4924C28.3482 0.00196325 28.2098 0.0588242 28.1076 0.160352C28.0054 0.261829 27.9477 0.399741 27.9473 0.543597V7.83456C27.9473 8.20159 28.1775 8.38381 28.6187 8.38381H29.1872C29.6285 8.38381 29.8587 8.20159 29.8587 7.83456V5.38295H36.6145C37.5788 5.40779 38.5411 5.27507 39.4622 4.99005C40.5065 4.60919 41.0371 4.00215 41.0371 3.17657V1.86224C41.0371 1.19906 40.4887 0.692995 39.3706 0.354517Z" fill="black"/>
<path fill-rule="evenodd" clip-rule="evenodd" d="M47.3625 1.79468C46.2291 1.67674 45.084 1.80367 44.0035 2.1669C43.6405 2.27508 43.3182 2.49175 43.0819 2.78785C42.8452 3.08395 42.7046 3.44524 42.6797 3.8232V7.86115C42.6797 8.20654 42.8991 8.37926 43.3192 8.37926H43.8599C44.281 8.37926 44.4994 8.20654 44.4994 7.86115V3.8232C44.4994 3.25926 45.2031 3.02008 46.5967 3.02008H47.3757C47.8309 3.02008 48.0473 2.81367 48.0473 2.40694C48.0473 2.00022 47.8177 1.79468 47.3625 1.79468Z" fill="black"/>
<path fill-rule="evenodd" clip-rule="evenodd" d="M0 18.9384H13.1427V10.3867H0V18.9384Z" fill="black"/>
<path fill-rule="evenodd" clip-rule="evenodd" d="M15.8066 18.9384H28.9493V10.3867H15.8066V18.9384Z" fill="black"/>
<path fill-rule="evenodd" clip-rule="evenodd" d="M31.6172 18.9384H44.7587V10.3867H31.6172V18.9384Z" fill="black"/>
<path fill-rule="evenodd" clip-rule="evenodd" d="M47.4258 18.9384H60.5678V10.3867H47.4258V18.9384Z" fill="black"/>
</svg>
