<svg width="79" height="28" viewBox="0 0 79 28" fill="none" xmlns="http://www.w3.org/2000/svg">
<path d="M22.9543 27.9871C21.2015 27.8044 19.5351 27.1738 18.1495 26.1779C17.9119 26.0156 17.7823 25.9547 17.7823 25.8938C17.8039 25.7923 19.6431 23.454 19.7079 23.4337C19.7511 23.4134 19.8375 23.4743 19.9887 23.5555C20.6599 23.9614 21.6767 24.3891 22.4343 24.5717C23.1703 24.734 24.1871 24.7138 24.9447 24.5311C26.0047 24.247 26.9567 23.4743 27.4335 22.477C27.7359 21.8463 27.9751 20.9316 28.0399 20.1184C28.0615 19.7734 28.0615 19.7125 27.9967 19.7125C27.9535 19.7125 27.9102 19.7531 27.8671 19.7734C27.6295 20.0372 26.8719 20.4445 26.1791 20.6475C25.4431 20.8708 24.9031 20.9519 24.2319 20.9114C22.9774 20.8504 22.0902 20.6272 21.0286 20.1184C18.887 19.0819 17.4799 17.251 17.1111 14.9953C17.0679 14.7315 17.0463 13.7965 17.0463 10.8885V7.12811L18.9935 7.10782L20.9407 7.08753C20.9407 7.08753 21.0055 8.87637 21.0271 10.8494C21.0703 14.143 21.0703 14.4474 21.1567 14.7533C21.4807 16.0144 22.5423 16.9697 23.9047 17.2336C24.3815 17.3148 25.116 17.2945 25.5496 17.1727C26.6744 16.848 27.54 16.055 27.9087 14.9968L28.0599 14.6112L28.0816 10.8696L28.1031 7.12811L30.072 7.10782C31.6087 7.10782 32.0408 7.08753 32.0624 7.12811C32.1056 7.20931 32.1272 15.8912 32.0624 17.5178C32.0192 18.9616 31.9327 19.9981 31.8032 20.8722C31.4143 23.3525 30.6567 24.9588 29.3144 26.1794C28.3407 27.0535 27.0848 27.6029 25.3968 27.8871C24.9663 27.9668 23.3647 28.0276 22.9543 27.9871ZM39.2479 20.9737C39.2048 20.9534 38.9239 20.9128 38.6632 20.8519C37.3872 20.5881 36.1744 20.1807 35.136 19.6936C34.5728 19.4298 33.7288 18.921 33.7072 18.8398C33.6856 18.7992 35.46 16.603 35.6112 16.4406C35.676 16.3797 35.6328 16.4406 36.0216 16.6436C36.7576 17.0495 37.8824 17.4366 38.8128 17.6192C39.4624 17.741 40.8251 17.7612 41.3235 17.6395C42.0161 17.4568 42.4051 17.151 42.4051 16.7653C42.4051 16.2971 41.9944 16.0942 39.7435 15.4839C38.8561 15.2403 37.8608 14.9547 37.5353 14.833C35.5448 14.1415 34.5064 13.2674 34.1377 12.0482C34.0512 11.7844 34.0512 11.6206 34.0512 11.1741C34.0512 10.0767 34.3969 9.30403 35.2409 8.49076C36.1281 7.63692 37.2745 7.12811 38.8113 6.94547C40.4344 6.7425 42.706 7.08753 44.3071 7.79932C44.6961 7.96166 45.3243 8.30812 45.5186 8.47047L45.6479 8.57196L44.6961 9.73021C44.1761 10.3608 43.7227 10.8885 43.701 10.8885C43.6794 10.8885 43.3986 10.8073 43.1161 10.7058C42.0128 10.3405 41.126 10.1564 40.152 10.1158C38.9193 10.0752 38.1833 10.2782 37.9442 10.7464C37.7497 11.1321 37.9442 11.4176 38.6369 11.7017C38.8529 11.7829 39.7402 12.0468 40.606 12.2917C42.9435 12.9224 43.766 13.2268 44.6095 13.7559C46.2328 14.7721 46.7079 16.3377 45.9736 18.1266C45.7361 18.7166 45.5186 19.021 45.0868 19.4081C44.2427 20.1604 43.312 20.6069 42.0345 20.8722C41.5794 20.9737 41.4068 20.994 40.4545 21.0346C39.8544 21.0346 39.6818 21.0548 39.2479 20.9737ZM6.68069 20.9128C4.49429 20.7099 2.52546 19.5907 1.27103 17.8627C0.340621 16.5609 -0.0929049 15.0374 0.0166128 13.4109C0.211028 10.442 2.50544 7.86018 5.57745 7.12811C6.44304 6.92513 6.65905 6.90485 8.88863 6.88456L11.0087 6.86427L11.0303 3.4489L11.0519 0.0335351L12.9991 0.0132489C14.5359 0.0132489 14.9679 -0.0273254 14.9895 0.0335351C14.9895 0.0538219 15.0111 1.68036 15.0327 3.59096C15.0759 7.75869 15.0111 14.4271 14.8815 15.0171C14.6871 15.9927 14.3615 16.806 13.8431 17.6192C13.2799 18.473 12.3711 19.3269 11.3975 19.8966C10.8343 20.2213 9.9903 20.5475 9.27746 20.7301C8.60629 20.9128 7.39504 20.9737 6.68069 20.9128ZM8.17428 17.1712C9.36387 16.948 10.4039 16.0739 10.7926 15.0157C10.9871 14.4865 11.0087 14.243 10.9871 12.3729L10.9655 10.6247H8.95345C6.70228 10.6247 6.63746 10.6247 6.01103 10.9088C5.03744 11.3365 4.34462 12.0873 4.0422 13.0644C3.95579 13.3283 3.9342 13.492 3.9342 13.9183C3.9342 14.5489 3.99902 14.8533 4.32303 15.4433C4.51744 15.8289 4.60386 15.9115 4.9942 16.2971C5.44937 16.7248 5.8382 16.948 6.3582 17.1104C6.8967 17.2524 7.61105 17.293 8.17428 17.1712ZM54.1377 20.9128C53.2286 20.8316 52.3412 20.5881 51.4327 20.1604C50.0254 19.4892 48.901 18.4527 48.2078 17.151C47.7977 16.4189 47.5585 15.7274 47.4286 14.9142C47.3421 14.4662 47.3421 13.2471 47.4286 12.86C47.7311 11.2335 48.4454 9.95204 49.6152 8.89522C50.8045 7.81812 52.147 7.20783 53.7919 6.98457C56.1078 6.65987 58.4654 7.39052 60.1319 8.95614C61.1919 9.95204 61.8413 11.0914 62.187 12.5136C62.3169 13.0832 62.3602 14.2618 62.252 14.8924C61.9278 16.9872 60.7152 18.7354 58.7895 19.8937C58.032 20.3416 56.9719 20.707 56.0202 20.849C55.6078 20.9331 54.6128 20.9534 54.1377 20.9128ZM55.8254 17.1307C56.4969 16.9277 56.9719 16.6421 57.427 16.1956C58.8128 14.8127 58.6602 12.5773 57.1029 11.3973C56.7577 11.1335 56.0645 10.8073 55.6311 10.7261C55.176 10.6247 54.3985 10.6247 53.9429 10.7464C52.9911 10.9697 52.1686 11.6003 51.7136 12.4135C51.4111 12.9427 51.3245 13.2471 51.3245 13.9386C51.3245 14.4271 51.3462 14.5894 51.4327 14.8533C51.6703 15.6462 52.1903 16.2971 52.9045 16.7436C53.2719 16.9668 53.641 17.1089 54.247 17.2524C54.2903 17.2727 54.5927 17.2727 54.9185 17.2524C55.3919 17.2119 55.5862 17.1916 55.8254 17.1307ZM63.9402 20.6881C63.9402 20.546 63.8969 13.8776 63.9402 13.3688C64.1777 10.8885 65.6495 8.81403 68.0303 7.67606C70.107 6.68016 72.661 6.65987 74.7177 7.63549C76.7295 8.57053 78.1369 10.1767 78.7213 12.1294C78.9594 12.9427 78.9594 12.9224 78.981 16.8668C78.981 19.0225 79.0237 20.5881 78.981 20.5881C76.2111 20.5881 76.1678 20.5881 74.9552 20.5881C74.9336 20.5881 74.9336 19.2254 74.9336 17.0712C74.9336 13.2688 74.9336 13.3094 74.6961 12.7005C74.3287 11.7858 73.3536 10.9726 72.3152 10.729C71.8169 10.6072 71.061 10.6072 70.541 10.729C69.2645 11.0335 68.3544 11.8873 67.9654 13.1282C67.901 13.3312 67.901 13.7588 67.8793 16.9915L67.8577 20.6924C67.8577 20.6924 66.7977 20.7128 65.8021 20.7128C64.0911 20.6881 64.9569 20.6881 63.9402 20.6881Z" fill="black"/>
</svg>
