<svg viewBox="0 0 14 14" xmlns="http://www.w3.org/2000/svg" xmlns:xlink="http://www.w3.org/1999/xlink" width="14.000000" height="14.000000" fill="none" customFrame="#000000">
	<path id="Vector" d="M2.3 0C2.48565 0 2.6637 0.0737497 2.79497 0.205025C2.92625 0.336301 3 0.514349 3 0.7L3 5.85L12.95 0.106C13.0564 0.0445713 13.1771 0.0122273 13.2999 0.0122178C13.4228 0.0122082 13.5435 0.0445335 13.6499 0.105946C13.7563 0.167358 13.8447 0.255693 13.9061 0.362076C13.9676 0.468459 14 0.589143 14 0.712L14 13.287C14.0001 13.4099 13.9679 13.5308 13.9065 13.6373C13.8451 13.7438 13.7568 13.8323 13.6503 13.8938C13.5439 13.9553 13.4231 13.9877 13.3002 13.9878C13.1773 13.9878 13.0565 13.9555 12.95 13.894L3 8.149L3 13.3C3 13.4857 2.92625 13.6637 2.79497 13.795C2.6637 13.9262 2.48565 14 2.3 14L0.7 14C0.514349 14 0.336301 13.9262 0.205025 13.795C0.0737497 13.6637 3.33067e-16 13.4857 0 13.3L0 0.7C-2.22045e-16 0.514349 0.0737497 0.336301 0.205025 0.205025C0.336301 0.0737497 0.514349 2.22045e-16 0.7 0L2.3 0Z" fill="rgb(255,255,255)" fill-opacity="0.699999988" fill-rule="nonzero" />
</svg>
