<svg viewBox="0 0 16 16" xmlns="http://www.w3.org/2000/svg" xmlns:xlink="http://www.w3.org/1999/xlink" width="16.000000" height="16.000000" fill="none" customFrame="#000000">
	<rect id="Img" width="16.000000" height="16.000000" x="0.000000" y="0.000000" />
	<path id="Vector" d="M13.151 0.922302C13.0823 0.848615 12.9995 0.789513 12.9075 0.748521C12.8155 0.707529 12.7162 0.685487 12.6155 0.68371C12.5148 0.681934 12.4148 0.700458 12.3214 0.738179C12.228 0.7759 12.1432 0.832045 12.072 0.903264C12.0007 0.974482 11.9446 1.05932 11.9069 1.1527C11.8692 1.24609 11.8506 1.34612 11.8524 1.44682C11.8542 1.54753 11.8762 1.64684 11.9172 1.73884C11.9582 1.83084 12.0173 1.91364 12.091 1.9823L13.109 3.0003L11.16 3.0003C10.6123 3.00031 10.0713 3.12028 9.57494 3.35178C9.07859 3.58329 8.63898 3.9207 8.287 4.3403L2.114 11.6963C1.90279 11.9481 1.63899 12.1506 1.34115 12.2895C1.0433 12.4284 0.718642 12.5003 0.39 12.5003L0 12.5003L0 14.0003L0.391 14.0003C0.938681 14.0003 1.47971 13.8803 1.97606 13.6488C2.47241 13.4173 2.91202 13.0799 3.264 12.6603L9.437 5.3043C9.64821 5.05251 9.91201 4.85005 10.2099 4.71115C10.5077 4.57225 10.8324 4.50028 11.161 4.5003L13.108 4.5003L12.091 5.5183C11.9585 5.66048 11.8864 5.84852 11.8898 6.04282C11.8933 6.23713 11.972 6.42251 12.1094 6.55992C12.2468 6.69734 12.4322 6.77605 12.6265 6.77948C12.8208 6.7829 13.0088 6.71078 13.151 6.5783L15.98 3.7503L13.15 0.922302L13.151 0.922302ZM0.391 3.5003L0 3.5003L0 2.0003L0.391 2.0003C1.5 2.0003 2.551 2.4903 3.264 3.3403L4.89 5.2773L3.911 6.4443L2.115 4.3043C1.90368 4.05238 1.63972 3.84984 1.34169 3.71094C1.04366 3.57203 0.718811 3.50013 0.39 3.5003L0.391 3.5003Z" fill="rgb(255,255,255)" fill-opacity="0.699999988" fill-rule="nonzero" />
	<path id="Vector" d="M7.5 10.7233L8.48 9.5563L9.437 10.6963C9.64821 10.9481 9.91201 11.1506 10.2099 11.2895C10.5077 11.4284 10.8324 11.5003 11.161 11.5003L13.108 11.5003L12.091 10.4823C12.0173 10.4136 11.9582 10.3308 11.9172 10.2388C11.8762 10.1468 11.8542 10.0475 11.8524 9.94682C11.8506 9.84612 11.8692 9.74609 11.9069 9.6527C11.9446 9.55932 12.0007 9.47448 12.072 9.40326C12.1432 9.33204 12.228 9.2759 12.3214 9.23818C12.4148 9.20046 12.5148 9.18193 12.6155 9.18371C12.7162 9.18549 12.8155 9.20753 12.9075 9.24852C12.9995 9.28951 13.0823 9.34861 13.151 9.4223L15.98 12.2503L13.151 15.0783C13.0823 15.152 12.9995 15.2111 12.9075 15.2521C12.8155 15.2931 12.7162 15.3151 12.6155 15.3169C12.5148 15.3187 12.4148 15.3001 12.3214 15.2624C12.228 15.2247 12.1432 15.1686 12.072 15.0973C12.0007 15.0261 11.9446 14.9413 11.9069 14.8479C11.8692 14.7545 11.8506 14.6545 11.8524 14.5538C11.8542 14.4531 11.8762 14.3538 11.9172 14.2618C11.9582 14.1698 12.0173 14.087 12.091 14.0183L13.109 13.0003L11.16 13.0003C10.6123 13.0003 10.0713 12.8803 9.57494 12.6488C9.07859 12.4173 8.63898 12.0799 8.287 11.6603L7.5 10.7233Z" fill="rgb(255,255,255)" fill-opacity="0.699999988" fill-rule="nonzero" />
</svg>
