<svg width="122" height="18" viewBox="0 0 122 18" fill="none" xmlns="http://www.w3.org/2000/svg">
<path d="M3.88672 14.3457V3.13477H0V0.253906H11.3477V3.13477H7.46094V14.3457H3.88672ZM15.5762 14.5703C12.2168 14.5703 10.1758 12.4707 10.1758 9.0332V9.02344C10.1758 5.60547 12.2266 3.48633 15.459 3.48633C18.6719 3.48633 20.7129 5.58594 20.7129 8.80859V9.82422H13.5645C13.6035 11.2598 14.3848 12.1094 15.6445 12.1094C16.7578 12.1094 17.3633 11.4746 17.5195 11.0352L17.5293 10.9863H20.6543L20.625 11.1035C20.3027 12.5781 18.9648 14.5703 15.5762 14.5703ZM15.5371 5.94727C14.5215 5.94727 13.7891 6.61133 13.6133 7.7832H17.4512C17.2754 6.5918 16.5527 5.94727 15.5371 5.94727ZM27.1484 14.5703C23.7988 14.5703 21.7383 12.4707 21.7383 9.02344V9.01367C21.7383 5.58594 23.8086 3.48633 27.1191 3.48633C30.1172 3.48633 32.0898 5.2832 32.1387 7.8125L32.1484 7.88086H28.9648L28.9551 7.7832C28.8184 6.79688 28.1934 6.11328 27.1777 6.11328C25.9766 6.11328 25.2539 7.17773 25.2539 9.02344V9.0332C25.2539 10.9082 25.957 11.9434 27.1875 11.9434C28.2031 11.9434 28.8184 11.2891 28.9551 10.2734L28.9746 10.1758H32.1484V10.2441C32.0801 12.7148 30.2148 14.5703 27.1484 14.5703ZM33.4863 14.3457V0.253906H36.9531V5.625H37.0215C37.5488 4.23828 38.6523 3.48633 40.2539 3.48633C42.5781 3.48633 43.9453 5.0293 43.9453 7.58789V14.3457H40.4785V8.33008C40.4785 7.07031 39.873 6.30859 38.7305 6.30859C37.6367 6.30859 36.9531 7.14844 36.9531 8.32031V14.3457H33.4863ZM45.5957 14.3457V3.71094H49.0625V5.58594H49.1309C49.6582 4.24805 50.752 3.48633 52.3633 3.48633C54.6973 3.48633 56.0156 4.98047 56.0156 7.5V14.3457H52.5586V8.24219C52.5586 7.02148 51.9824 6.30859 50.8496 6.30859C49.7461 6.30859 49.0625 7.12891 49.0625 8.31055V14.3457H45.5957ZM62.7637 14.5703C59.3945 14.5703 57.3242 12.5391 57.3242 9.0332V9.01367C57.3242 5.56641 59.4629 3.48633 62.7637 3.48633C66.0742 3.48633 68.2031 5.54688 68.2031 9.01367V9.0332C68.2031 12.5488 66.1133 14.5703 62.7637 14.5703ZM62.7734 11.9434C63.9551 11.9434 64.6973 10.8984 64.6973 9.0332V9.01367C64.6973 7.17773 63.9355 6.11328 62.7637 6.11328C61.5918 6.11328 60.8398 7.17773 60.8398 9.01367V9.0332C60.8398 10.9082 61.5723 11.9434 62.7734 11.9434ZM79.0918 14.5996C75.5859 14.5996 73.3691 13.0469 73.2129 10.3516L73.2031 10.1758H76.5332L76.5527 10.2832C76.7285 11.1914 77.7832 11.7871 79.1602 11.7871C80.5859 11.7871 81.4648 11.1816 81.4648 10.3027V10.293C81.4648 9.49219 80.8398 9.12109 79.1895 8.79883L77.7441 8.52539C74.9512 8.00781 73.4766 6.63086 73.4766 4.47266V4.46289C73.4766 1.74805 75.8301 0 79.0625 0C82.5977 0 84.5996 1.66016 84.7266 4.21875L84.7363 4.42383H81.4062L81.3965 4.31641C81.2891 3.38867 80.3809 2.8125 79.0918 2.8125C77.7734 2.8125 77.0312 3.4082 77.0312 4.21875V4.22852C77.0312 4.99023 77.6953 5.39062 79.209 5.67383L80.6543 5.94727C83.6426 6.52344 85.0293 7.73438 85.0293 9.99023V10C85.0293 12.8125 82.8223 14.5996 79.0918 14.5996ZM86.5137 14.3457V0.253906H89.9805V5.625H90.0488C90.5762 4.23828 91.6797 3.48633 93.2812 3.48633C95.6055 3.48633 96.9727 5.0293 96.9727 7.58789V14.3457H93.5059V8.33008C93.5059 7.07031 92.9004 6.30859 91.7578 6.30859C90.6641 6.30859 89.9805 7.14844 89.9805 8.32031V14.3457H86.5137ZM103.74 14.5703C100.371 14.5703 98.3008 12.5391 98.3008 9.0332V9.01367C98.3008 5.56641 100.439 3.48633 103.74 3.48633C107.051 3.48633 109.18 5.54688 109.18 9.01367V9.0332C109.18 12.5488 107.09 14.5703 103.74 14.5703ZM103.75 11.9434C104.932 11.9434 105.674 10.8984 105.674 9.0332V9.01367C105.674 7.17773 104.912 6.11328 103.74 6.11328C102.568 6.11328 101.816 7.17773 101.816 9.01367V9.0332C101.816 10.9082 102.549 11.9434 103.75 11.9434ZM110.518 17.7637V3.71094H113.984V5.60547H114.062C114.6 4.27734 115.732 3.48633 117.246 3.48633C119.932 3.48633 121.494 5.50781 121.494 9.02344V9.0332C121.494 12.5293 119.941 14.5703 117.285 14.5703C115.752 14.5703 114.58 13.7988 114.053 12.5195H113.984V17.7637H110.518ZM115.977 11.7578C117.197 11.7578 117.979 10.7129 117.979 9.0332V9.02344C117.979 7.32422 117.197 6.30859 115.977 6.30859C114.775 6.30859 113.965 7.33398 113.965 9.0332V9.04297C113.965 10.7227 114.766 11.7578 115.977 11.7578Z" fill="#333333"/>
</svg>
