<svg viewBox="0 0 14.25 15.834" xmlns="http://www.w3.org/2000/svg" xmlns:xlink="http://www.w3.org/1999/xlink" width="14.250000" height="15.833984" fill="none" customFrame="#000000">
	<path id="Vector" d="M11.875 0C11.2451 7.03141e-16 10.641 0.250223 10.1956 0.695621C9.75022 1.14102 9.5 1.74511 9.5 2.375C9.50048 2.52395 9.51498 2.67253 9.54329 2.81877L3.9104 6.10449C3.48136 5.74104 2.93729 5.5416 2.375 5.54167C1.74511 5.54167 1.14102 5.79189 0.695621 6.23729C0.250223 6.68269 7.03141e-16 7.28678 0 7.91667C1.05471e-15 8.54656 0.250223 9.15065 0.695621 9.59605C1.14102 10.0414 1.74511 10.2917 2.375 10.2917C2.93642 10.2906 3.4793 10.0906 3.90731 9.72729L9.54329 13.0146C9.51498 13.1608 9.50048 13.3094 9.5 13.4583C9.5 14.0882 9.75022 14.6923 10.1956 15.1377C10.641 15.5831 11.2451 15.8333 11.875 15.8333C12.5049 15.8333 13.109 15.5831 13.5544 15.1377C13.9998 14.6923 14.25 14.0882 14.25 13.4583C14.25 12.8284 13.9998 12.2244 13.5544 11.779C13.109 11.3336 12.5049 11.0833 11.875 11.0833C11.313 11.0841 10.7696 11.284 10.3411 11.6477L4.70671 8.36043C4.73502 8.2142 4.74952 8.06562 4.75 7.91667C4.74952 7.76771 4.73502 7.61914 4.70671 7.4729L10.3396 4.18717C10.7686 4.55062 11.3127 4.75006 11.875 4.75C12.5049 4.75 13.109 4.49978 13.5544 4.05438C13.9998 3.60898 14.25 3.00489 14.25 2.375C14.25 1.74511 13.9998 1.14102 13.5544 0.695621C13.109 0.250223 12.5049 3.51571e-16 11.875 0Z" fill="rgb(126,126,129)" fill-rule="nonzero" />
</svg>
